<svg width="64" height="64" viewBox="0 0 64 64" fill="none" xmlns="http://www.w3.org/2000/svg">
<path d="M32 61.44C48.2133 61.44 61.44 48.2133 61.44 32C61.44 15.7867 48.2133 2.56 32 2.56C15.7867 2.56 2.56 15.7867 2.56 32C2.56 48.2133 15.7867 61.44 32 61.44ZM32 0C49.7067 0 64 14.2933 64 32C64 49.7067 49.7067 64 32 64C14.2933 64 0 49.7067 0 32C0 14.2933 14.2933 0 32 0ZM32.8533 35.4133V32.8533H46.9333V35.4133H41.1733V46.9333H38.6133V35.4133H32.8533ZM29.6533 32.64L31.36 34.3467L25.8133 39.8933L31.36 45.44L29.6533 47.1467L24.1067 41.6L18.56 47.1467L16.8533 45.44L22.4 39.8933L16.8533 34.3467L18.56 32.64L24.1067 38.1867C23.8933 38.1867 29.6533 32.64 29.6533 32.64ZM39.8933 19.2C37.3333 19.2 35.2 21.3333 35.2 23.8933C35.2 24.7467 35.4133 25.6 35.84 26.24L42.24 19.84C41.6 19.4133 40.7467 19.2 39.8933 19.2ZM39.8933 31.1467C35.84 31.1467 32.64 27.9467 32.64 23.8933C32.64 19.84 35.84 16.64 39.8933 16.64C42.24 16.64 44.5867 17.92 45.8667 19.84L37.76 27.9467C40.1067 29.0133 42.88 28.16 43.9467 25.8133C44.16 25.1733 44.3733 24.5333 44.3733 23.68H46.9333C46.9333 27.7333 43.7333 30.9333 39.8933 31.1467ZM23.8933 23.04L29.2267 16.64L31.1467 18.3467L25.3867 25.6V31.1467H22.8267V25.6L16.64 18.3467L18.56 16.64L23.8933 23.04Z" fill="black"/>
</svg>
